<svg width="390" height="844" viewBox="0 0 390 844" fill="none" xmlns="http://www.w3.org/2000/svg">
<rect width="390" height="844" fill="url(#paint0_linear_287_298)"/>
<path d="M23.4352 36.5L19.5 40.5L23.4352 44.5M19.5 40.5H53.5" stroke="#FDFDFD" stroke-width="2" stroke-linecap="round" stroke-linejoin="round"/>
<path d="M130.354 47.5V37.0605H132.053V44.8438H132.941L131.779 45.4688L137.365 37.0605H139.064V47.5H137.365V39.7168H136.477L137.639 39.0918L132.053 47.5H130.354ZM142.17 47.5V37.0605H143.869V44.8438H144.758L143.596 45.4688L149.182 37.0605H150.881V47.5H149.182V39.7168H148.293L149.455 39.0918L143.869 47.5H142.17ZM153.801 42.6074V41.0254H160.295V42.6074H153.801ZM163.225 47.5V37.0605H171.691V47.5H169.992V38.4668H164.924V47.5H163.225ZM179.123 47.6855C178.14 47.6855 177.287 47.4674 176.564 47.0312C175.842 46.5951 175.282 45.9733 174.885 45.166C174.494 44.3587 174.299 43.3984 174.299 42.2852V42.2656C174.299 41.1523 174.494 40.1921 174.885 39.3848C175.282 38.5775 175.842 37.959 176.564 37.5293C177.287 37.0931 178.137 36.875 179.113 36.875C180.103 36.875 180.956 37.0931 181.672 37.5293C182.395 37.959 182.951 38.5775 183.342 39.3848C183.739 40.1921 183.938 41.1523 183.938 42.2656V42.2852C183.938 43.3984 183.739 44.3587 183.342 45.166C182.951 45.9733 182.395 46.5951 181.672 47.0312C180.956 47.4674 180.106 47.6855 179.123 47.6855ZM179.123 46.1816C179.768 46.1816 180.318 46.0286 180.773 45.7227C181.236 45.4102 181.587 44.9642 181.828 44.3848C182.076 43.8053 182.199 43.1055 182.199 42.2852V42.2656C182.199 41.4453 182.076 40.7454 181.828 40.166C181.587 39.5866 181.236 39.1439 180.773 38.8379C180.318 38.5319 179.764 38.3789 179.113 38.3789C178.469 38.3789 177.915 38.5319 177.453 38.8379C176.997 39.1439 176.646 39.5866 176.398 40.166C176.158 40.7454 176.037 41.4453 176.037 42.2656V42.2852C176.037 43.1055 176.158 43.8053 176.398 44.3848C176.646 44.9642 176.997 45.4102 177.453 45.7227C177.915 46.0286 178.472 46.1816 179.123 46.1816ZM188.244 47.5H186.545V37.0605H188.615L192.326 45.166H192.463L196.203 37.0605H198.176V47.5H196.477V40.0781H196.32L193.01 47.207H191.701L188.41 40.0781H188.244V47.5ZM205.607 47.6855C204.624 47.6855 203.771 47.4674 203.049 47.0312C202.326 46.5951 201.766 45.9733 201.369 45.166C200.979 44.3587 200.783 43.3984 200.783 42.2852V42.2656C200.783 41.1523 200.979 40.1921 201.369 39.3848C201.766 38.5775 202.326 37.959 203.049 37.5293C203.771 37.0931 204.621 36.875 205.598 36.875C206.587 36.875 207.44 37.0931 208.156 37.5293C208.879 37.959 209.436 38.5775 209.826 39.3848C210.223 40.1921 210.422 41.1523 210.422 42.2656V42.2852C210.422 43.3984 210.223 44.3587 209.826 45.166C209.436 45.9733 208.879 46.5951 208.156 47.0312C207.44 47.4674 206.59 47.6855 205.607 47.6855ZM205.607 46.1816C206.252 46.1816 206.802 46.0286 207.258 45.7227C207.72 45.4102 208.072 44.9642 208.312 44.3848C208.56 43.8053 208.684 43.1055 208.684 42.2852V42.2656C208.684 41.4453 208.56 40.7454 208.312 40.166C208.072 39.5866 207.72 39.1439 207.258 38.8379C206.802 38.5319 206.249 38.3789 205.598 38.3789C204.953 38.3789 204.4 38.5319 203.938 38.8379C203.482 39.1439 203.13 39.5866 202.883 40.166C202.642 40.7454 202.521 41.4453 202.521 42.2656V42.2852C202.521 43.1055 202.642 43.8053 202.883 44.3848C203.13 44.9642 203.482 45.4102 203.938 45.7227C204.4 46.0286 204.956 46.1816 205.607 46.1816ZM213.029 47.5V37.0605H214.729V46.0938H218.635V37.0605H220.334V46.0938H224.23V37.0605H225.93V47.5H213.029ZM225.998 50.2832V47.5H224.26V46.0938H227.6V50.2832H225.998ZM236.516 47.5V42.7832H231.35V47.5H229.65V37.0605H231.35V41.377H236.516V37.0605H238.215V47.5H236.516ZM241.33 47.5V37.0605H243.029V44.8438H243.918L242.756 45.4688L248.342 37.0605H250.041V47.5H248.342V39.7168H247.453L248.615 39.0918L243.029 47.5H241.33ZM255.354 42.7344H254.846V47.5H253.146V37.0605H254.846V41.4355H255.354L259.406 37.0605H261.457L256.643 42.1191V41.8457L261.633 47.5H259.455L255.354 42.7344Z" fill="#FDFDFD"/>
<path d="M363.564 53.9425C361.214 51.3181 357.8 49.6667 354 49.6667C350.2 49.6667 346.786 51.3181 344.436 53.9425M354 57C344.887 57 337.5 49.6127 337.5 40.5C337.5 31.3873 344.887 24 354 24C363.113 24 370.5 31.3873 370.5 40.5C370.5 49.6127 363.113 57 354 57ZM354 44.1667C350.962 44.1667 348.5 41.7042 348.5 38.6667C348.5 35.6291 350.962 33.1667 354 33.1667C357.038 33.1667 359.5 35.6291 359.5 38.6667C359.5 41.7042 357.038 44.1667 354 44.1667Z" stroke="#FDFDFD" stroke-width="2" stroke-linecap="round" stroke-linejoin="round"/>
<path d="M90.882 122V111.776L92.07 113.792C90.99 114.608 89.766 115.196 88.398 115.556C87.03 115.892 85.338 116.06 83.322 116.06C80.658 116.06 78.45 115.628 76.698 114.764C74.946 113.876 73.626 112.556 72.738 110.804C71.874 109.028 71.442 106.808 71.442 104.144V96.8H80.442V104.18C80.442 105.644 80.862 106.76 81.702 107.528C82.566 108.296 83.874 108.68 85.626 108.68C87.234 108.68 88.518 108.5 89.478 108.14C90.438 107.756 91.302 107.12 92.07 106.232L90.882 109.904V96.8H99.882V122H90.882ZM116.137 122.504C113.425 122.504 111.097 122.072 109.153 121.208C107.233 120.344 105.769 119.18 104.761 117.716C103.777 116.252 103.285 114.62 103.285 112.82C103.285 111.02 103.777 109.388 104.761 107.924C105.769 106.46 107.245 105.296 109.189 104.432C111.157 103.568 113.509 103.136 116.245 103.136C119.005 103.136 121.357 103.568 123.301 104.432C125.245 105.296 126.709 106.472 127.693 107.96C128.701 109.448 129.205 111.104 129.205 112.928C129.205 113.48 129.157 114.104 129.061 114.8H109.549V110.84H123.445L122.005 113.72V112.82C122.005 111.98 121.801 111.26 121.393 110.66C120.985 110.036 120.349 109.556 119.485 109.22C118.645 108.884 117.565 108.716 116.245 108.716C114.925 108.716 113.833 108.884 112.969 109.22C112.129 109.556 111.505 110.036 111.097 110.66C110.689 111.26 110.485 111.98 110.485 112.82C110.485 113.66 110.689 114.392 111.097 115.016C111.505 115.616 112.141 116.084 113.005 116.42C113.869 116.756 114.961 116.924 116.281 116.924C117.697 116.924 118.753 116.828 119.449 116.636C120.169 116.444 120.793 116.192 121.321 115.88H128.881C128.521 116.888 127.849 117.896 126.865 118.904C125.905 119.912 124.525 120.764 122.725 121.46C120.925 122.156 118.729 122.504 116.137 122.504ZM132.275 122V103.64H143.903L145.847 111.524C146.063 112.34 146.219 113.048 146.315 113.648C146.435 114.224 146.495 114.728 146.495 115.16V115.34H147.215V115.16C147.215 114.728 147.263 114.224 147.359 113.648C147.479 113.048 147.647 112.34 147.863 111.524L149.807 103.64H161.435V122H153.875V113.9C153.875 111.74 154.115 109.76 154.595 107.96H153.875L150.527 119.66H143.183L139.835 107.96H139.115C139.595 109.76 139.835 111.74 139.835 113.9V122H132.275ZM174.096 119.444C174.48 118.604 174.888 117.944 175.32 117.464C175.752 116.96 176.268 116.6 176.868 116.384C177.468 116.168 178.224 116.06 179.136 116.06L178.812 117.608V113.936L179.316 115.34C178.164 115.34 177.156 115.112 176.292 114.656C175.428 114.176 174.768 113.54 174.312 112.748C173.88 111.932 173.664 111.032 173.664 110.048C173.664 108.728 173.976 107.6 174.6 106.664C175.224 105.704 176.184 104.96 177.48 104.432C178.8 103.904 180.48 103.64 182.52 103.64H196.344V122H188.424V114.98H189.144V109.04H183.528C183.12 109.04 182.772 109.112 182.484 109.256C182.196 109.4 181.968 109.604 181.8 109.868C181.656 110.132 181.584 110.432 181.584 110.768C181.584 111.272 181.752 111.68 182.088 111.992C182.448 112.304 182.928 112.46 183.528 112.46H189.72V116.6H186.12C185.76 116.6 185.436 116.66 185.148 116.78C184.86 116.876 184.608 117.032 184.392 117.248C184.2 117.464 184.056 117.728 183.96 118.04L182.664 122H172.944L174.096 119.444ZM209.654 122V103.64H221.282L223.226 111.524C223.442 112.34 223.598 113.048 223.694 113.648C223.814 114.224 223.874 114.728 223.874 115.16V115.34H224.594V115.16C224.594 114.728 224.642 114.224 224.738 113.648C224.858 113.048 225.026 112.34 225.242 111.524L227.186 103.64H238.814V122H231.254V113.9C231.254 111.74 231.494 109.76 231.974 107.96H231.254L227.906 119.66H220.562L217.214 107.96H216.494C216.974 109.76 217.214 111.74 217.214 113.9V122H209.654ZM255.083 122.504C252.251 122.504 249.839 122.072 247.847 121.208C245.879 120.344 244.391 119.18 243.383 117.716C242.375 116.252 241.871 114.62 241.871 112.82C241.871 111.02 242.375 109.388 243.383 107.924C244.391 106.46 245.879 105.296 247.847 104.432C249.839 103.568 252.251 103.136 255.083 103.136C257.915 103.136 260.315 103.568 262.283 104.432C264.275 105.296 265.775 106.46 266.783 107.924C267.791 109.388 268.295 111.02 268.295 112.82C268.295 114.62 267.791 116.252 266.783 117.716C265.775 119.18 264.275 120.344 262.283 121.208C260.315 122.072 257.915 122.504 255.083 122.504ZM255.083 116.384C256.235 116.384 257.207 116.228 257.999 115.916C258.791 115.604 259.379 115.184 259.763 114.656C260.171 114.104 260.375 113.492 260.375 112.82C260.375 112.172 260.171 111.584 259.763 111.056C259.379 110.504 258.791 110.072 257.999 109.76C257.207 109.424 256.235 109.256 255.083 109.256C253.931 109.256 252.959 109.424 252.167 109.76C251.375 110.072 250.775 110.504 250.367 111.056C249.983 111.584 249.791 112.172 249.791 112.82C249.791 113.492 249.983 114.104 250.367 114.656C250.775 115.184 251.375 115.604 252.167 115.916C252.959 116.228 253.931 116.384 255.083 116.384ZM282.009 122.504C277.761 122.504 274.773 122.024 273.045 121.064C271.317 120.104 270.453 118.772 270.453 117.068C270.453 115.532 271.041 114.332 272.217 113.468C273.393 112.58 274.749 111.968 276.285 111.632C277.845 111.296 279.741 111.008 281.973 110.768C282.741 110.696 283.461 110.612 284.133 110.516C284.805 110.42 285.309 110.3 285.645 110.156C286.005 110.012 286.185 109.832 286.185 109.616C286.185 109.256 285.933 108.992 285.429 108.824C284.925 108.632 283.905 108.536 282.369 108.536C281.145 108.536 280.209 108.668 279.561 108.932C278.913 109.172 278.577 109.568 278.553 110.12H270.453C270.573 107.744 271.725 105.992 273.909 104.864C276.117 103.712 278.997 103.136 282.549 103.136C286.749 103.136 289.749 103.676 291.549 104.756C293.373 105.812 294.285 107.204 294.285 108.932C294.285 110.348 293.721 111.452 292.593 112.244C291.489 113.036 290.181 113.6 288.669 113.936C287.181 114.248 285.345 114.524 283.161 114.764C282.105 114.884 281.265 114.992 280.641 115.088C280.017 115.184 279.513 115.316 279.129 115.484C278.745 115.652 278.553 115.856 278.553 116.096C278.553 116.336 278.637 116.528 278.805 116.672C278.997 116.816 279.369 116.924 279.921 116.996C280.497 117.068 281.373 117.104 282.549 117.104C283.629 117.104 284.469 117.032 285.069 116.888C285.693 116.744 286.125 116.552 286.365 116.312C286.605 116.048 286.725 115.76 286.725 115.448V115.34H294.825V115.412C294.825 116.66 294.381 117.824 293.493 118.904C292.629 119.984 291.237 120.86 289.317 121.532C287.397 122.18 284.961 122.504 282.009 122.504ZM301.077 129.56C300.165 129.56 299.373 129.5 298.701 129.38C298.029 129.26 297.345 129.044 296.649 128.732V122.252C297.729 122.684 298.857 122.9 300.033 122.9C300.825 122.9 301.509 122.84 302.085 122.72C302.685 122.6 303.189 122.396 303.597 122.108C304.029 121.82 304.365 121.424 304.605 120.92L305.217 119.696L304.569 123.224L295.209 103.64H304.389L306.873 111.38C306.873 111.404 306.873 111.428 306.873 111.452C306.897 111.476 306.909 111.5 306.909 111.524C307.221 112.556 307.461 113.468 307.629 114.26C307.797 115.052 307.881 115.772 307.881 116.42V116.6H308.601V116.42C308.601 115.196 308.937 113.516 309.609 111.38L312.093 103.64H321.273L313.209 121.172C312.273 123.212 311.217 124.844 310.041 126.068C308.865 127.292 307.545 128.18 306.081 128.732C304.617 129.284 302.949 129.56 301.077 129.56ZM98.3843 158V139.64H122.432V158H114.512V146.3H106.304V158H98.3843ZM138.716 158.504C135.884 158.504 133.472 158.072 131.48 157.208C129.512 156.344 128.024 155.18 127.016 153.716C126.008 152.252 125.504 150.62 125.504 148.82C125.504 147.02 126.008 145.388 127.016 143.924C128.024 142.46 129.512 141.296 131.48 140.432C133.472 139.568 135.884 139.136 138.716 139.136C141.548 139.136 143.948 139.568 145.916 140.432C147.908 141.296 149.408 142.46 150.416 143.924C151.424 145.388 151.928 147.02 151.928 148.82C151.928 150.62 151.424 152.252 150.416 153.716C149.408 155.18 147.908 156.344 145.916 157.208C143.948 158.072 141.548 158.504 138.716 158.504ZM138.716 152.384C139.868 152.384 140.84 152.228 141.632 151.916C142.424 151.604 143.012 151.184 143.396 150.656C143.804 150.104 144.008 149.492 144.008 148.82C144.008 148.172 143.804 147.584 143.396 147.056C143.012 146.504 142.424 146.072 141.632 145.76C140.84 145.424 139.868 145.256 138.716 145.256C137.564 145.256 136.592 145.424 135.8 145.76C135.008 146.072 134.408 146.504 134 147.056C133.616 147.584 133.424 148.172 133.424 148.82C133.424 149.492 133.616 150.104 134 150.656C134.408 151.184 135.008 151.604 135.8 151.916C136.592 152.228 137.564 152.384 138.716 152.384ZM154.986 158V139.64H166.614L168.558 147.524C168.774 148.34 168.93 149.048 169.026 149.648C169.146 150.224 169.206 150.728 169.206 151.16V151.34H169.926V151.16C169.926 150.728 169.974 150.224 170.07 149.648C170.19 149.048 170.358 148.34 170.574 147.524L172.518 139.64H184.146V158H176.586V149.9C176.586 147.74 176.826 145.76 177.306 143.96H176.586L173.238 155.66H165.894L162.546 143.96H161.826C162.306 145.76 162.546 147.74 162.546 149.9V158H154.986ZM200.415 158.504C197.583 158.504 195.171 158.072 193.179 157.208C191.211 156.344 189.723 155.18 188.715 153.716C187.707 152.252 187.203 150.62 187.203 148.82C187.203 147.02 187.707 145.388 188.715 143.924C189.723 142.46 191.211 141.296 193.179 140.432C195.171 139.568 197.583 139.136 200.415 139.136C203.247 139.136 205.647 139.568 207.615 140.432C209.607 141.296 211.107 142.46 212.115 143.924C213.123 145.388 213.627 147.02 213.627 148.82C213.627 150.62 213.123 152.252 212.115 153.716C211.107 155.18 209.607 156.344 207.615 157.208C205.647 158.072 203.247 158.504 200.415 158.504ZM200.415 152.384C201.567 152.384 202.539 152.228 203.331 151.916C204.123 151.604 204.711 151.184 205.095 150.656C205.503 150.104 205.707 149.492 205.707 148.82C205.707 148.172 205.503 147.584 205.095 147.056C204.711 146.504 204.123 146.072 203.331 145.76C202.539 145.424 201.567 145.256 200.415 145.256C199.263 145.256 198.291 145.424 197.499 145.76C196.707 146.072 196.107 146.504 195.699 147.056C195.315 147.584 195.123 148.172 195.123 148.82C195.123 149.492 195.315 150.104 195.699 150.656C196.107 151.184 196.707 151.604 197.499 151.916C198.291 152.228 199.263 152.384 200.415 152.384ZM231.337 158V151.664L232.345 152.24C231.217 152.984 230.173 153.5 229.213 153.788C228.277 154.076 227.077 154.22 225.613 154.22C223.405 154.22 221.569 153.86 220.105 153.14C218.665 152.42 217.585 151.328 216.865 149.864C216.145 148.4 215.785 146.564 215.785 144.356V139.64H223.705V143.852C223.705 144.692 223.837 145.388 224.101 145.94C224.389 146.468 224.809 146.876 225.361 147.164C225.937 147.428 226.657 147.56 227.521 147.56C228.553 147.56 229.441 147.404 230.185 147.092C230.929 146.78 231.697 146.216 232.489 145.4L231.337 148.892V139.64H239.257V158H231.337ZM243.228 158V139.64H251.148V146.552H250.608V152.42H255.648C256.056 152.42 256.392 152.36 256.656 152.24C256.92 152.12 257.112 151.952 257.232 151.736C257.376 151.52 257.448 151.268 257.448 150.98C257.448 150.524 257.292 150.176 256.98 149.936C256.692 149.672 256.248 149.54 255.648 149.54H249.384V143.96H257.016C259.776 143.96 261.852 144.584 263.244 145.832C264.66 147.056 265.368 148.772 265.368 150.98C265.368 152.444 265.056 153.704 264.432 154.76C263.832 155.792 262.908 156.596 261.66 157.172C260.412 157.724 258.864 158 257.016 158H243.228ZM275.001 148.028C275.001 146.804 275.301 145.82 275.901 145.076C276.525 144.308 277.245 143.744 278.061 143.384C278.901 143 279.945 142.628 281.193 142.268C281.841 142.1 282.357 141.944 282.741 141.8C283.149 141.656 283.473 141.488 283.713 141.296C283.953 141.08 284.073 140.84 284.073 140.576C284.073 140.12 283.785 139.772 283.209 139.532C282.657 139.268 281.601 139.136 280.041 139.136C278.913 139.136 278.001 139.244 277.305 139.46C276.633 139.676 276.153 139.964 275.865 140.324C275.577 140.684 275.433 141.104 275.433 141.584V141.728H266.793V141.404C266.793 138.5 267.825 136.256 269.889 134.672C271.977 133.088 275.265 132.296 279.753 132.296C284.313 132.296 287.613 132.956 289.653 134.276C291.693 135.596 292.713 137.36 292.713 139.568C292.713 141.008 292.413 142.184 291.813 143.096C291.213 143.984 290.505 144.656 289.689 145.112C288.873 145.544 287.853 145.964 286.629 146.372C285.909 146.612 285.357 146.828 284.973 147.02C284.589 147.188 284.265 147.404 284.001 147.668C283.761 147.908 283.641 148.208 283.641 148.568V148.784H275.001V148.028ZM279.285 158.504C277.989 158.504 276.933 158.12 276.117 157.352C275.301 156.56 274.893 155.564 274.893 154.364C274.893 153.572 275.073 152.864 275.433 152.24C275.817 151.616 276.333 151.124 276.981 150.764C277.653 150.404 278.421 150.224 279.285 150.224C280.605 150.224 281.673 150.62 282.489 151.412C283.305 152.18 283.713 153.164 283.713 154.364C283.713 155.156 283.521 155.864 283.137 156.488C282.777 157.112 282.261 157.604 281.589 157.964C280.917 158.324 280.149 158.504 279.285 158.504Z" fill="#FDFDFD"/>
<circle cx="195" cy="297" r="99" fill="white" fill-opacity="0.8"/>
<path d="M167.758 429V412.09H170.395V419.238H179.066V412.09H181.703V429H179.066V421.512H170.395V429H167.758ZM188.547 429.223C187.734 429.223 187.016 429.066 186.391 428.754C185.766 428.441 185.277 428.004 184.926 427.441C184.582 426.879 184.41 426.227 184.41 425.484V425.461C184.41 424.734 184.59 424.109 184.949 423.586C185.316 423.062 185.844 422.648 186.531 422.344C187.219 422.039 188.051 421.855 189.027 421.793L193.691 421.523V423.305L189.367 423.574C188.586 423.621 187.988 423.805 187.574 424.125C187.168 424.438 186.965 424.859 186.965 425.391V425.414C186.965 425.961 187.172 426.395 187.586 426.715C188.008 427.027 188.559 427.184 189.238 427.184C189.84 427.184 190.379 427.062 190.855 426.82C191.332 426.57 191.707 426.234 191.98 425.812C192.254 425.383 192.391 424.902 192.391 424.371V420.633C192.391 419.953 192.176 419.422 191.746 419.039C191.324 418.656 190.715 418.465 189.918 418.465C189.191 418.465 188.605 418.617 188.16 418.922C187.723 419.219 187.445 419.609 187.328 420.094L187.305 420.188H184.902L184.914 420.059C184.984 419.355 185.23 418.727 185.652 418.172C186.074 417.609 186.652 417.168 187.387 416.848C188.129 416.52 189 416.355 190 416.355C191.016 416.355 191.891 416.523 192.625 416.859C193.367 417.195 193.938 417.672 194.336 418.289C194.734 418.906 194.934 419.633 194.934 420.469V429H192.391V427.09H192.32C192.078 427.52 191.766 427.895 191.383 428.215C191.008 428.535 190.578 428.785 190.094 428.965C189.609 429.137 189.094 429.223 188.547 429.223ZM201.578 423.516C201.5 424.672 201.332 425.672 201.074 426.516C200.816 427.352 200.422 427.996 199.891 428.449C199.359 428.895 198.645 429.117 197.746 429.117C197.504 429.117 197.297 429.102 197.125 429.07C196.953 429.047 196.82 429.02 196.727 428.988V426.773C196.789 426.781 196.879 426.797 196.996 426.82C197.113 426.836 197.25 426.844 197.406 426.844C197.828 426.844 198.164 426.707 198.414 426.434C198.664 426.152 198.852 425.75 198.977 425.227C199.102 424.703 199.188 424.082 199.234 423.363L199.691 416.602H208.68V429H206.125V418.617H201.93L201.578 423.516ZM211.621 429V416.602H214.141V425.273H215.383L213.637 426.234L219.941 416.602H222.449V429H219.93V420.293H218.688L220.422 419.332L214.129 429H211.621Z" fill="white"/>
<rect x="16" y="469" width="358" height="44" rx="5" fill="#3A4030"/>
<path d="M133.032 496.068C132.896 496.068 132.779 496.057 132.684 496.034C132.592 496.016 132.526 495.998 132.485 495.979V494.879C132.526 494.888 132.59 494.899 132.677 494.913C132.768 494.927 132.886 494.934 133.032 494.934C133.278 494.934 133.497 494.897 133.688 494.824C133.884 494.751 134.06 494.64 134.215 494.489C134.374 494.334 134.518 494.136 134.646 493.895L131.275 486.136H132.588L135.233 492.527H135.343L137.927 486.136H139.205L136.184 493.177C135.919 493.797 135.65 494.323 135.377 494.756C135.104 495.184 134.782 495.51 134.413 495.733C134.049 495.957 133.588 496.068 133.032 496.068ZM142.876 496.137C142.352 496.137 141.878 496.055 141.454 495.891C141.035 495.727 140.693 495.499 140.429 495.207C140.164 494.911 140.007 494.564 139.957 494.168L139.95 494.113H141.16L141.174 494.168C141.251 494.469 141.443 494.708 141.748 494.886C142.053 495.063 142.429 495.152 142.876 495.152C143.418 495.152 143.842 495.034 144.147 494.797C144.453 494.56 144.605 494.259 144.605 493.895V493.881C144.605 493.48 144.457 493.186 144.161 492.999C143.869 492.808 143.441 492.712 142.876 492.712H141.728V491.728H142.876C143.35 491.728 143.712 491.634 143.963 491.447C144.218 491.256 144.346 490.969 144.346 490.586V490.572C144.346 490.258 144.225 489.998 143.983 489.793C143.746 489.583 143.391 489.479 142.917 489.479C142.498 489.479 142.142 489.565 141.851 489.738C141.559 489.911 141.383 490.146 141.324 490.442L141.317 490.477H140.155L140.162 490.429C140.221 490.032 140.372 489.69 140.613 489.403C140.859 489.112 141.178 488.888 141.57 488.733C141.967 488.574 142.416 488.494 142.917 488.494C143.468 488.494 143.936 488.578 144.318 488.747C144.706 488.916 145 489.15 145.2 489.451C145.405 489.747 145.508 490.091 145.508 490.483V490.497C145.508 490.871 145.396 491.208 145.173 491.509C144.95 491.81 144.656 492.003 144.291 492.09V492.199C144.615 492.268 144.886 492.377 145.104 492.527C145.328 492.678 145.494 492.862 145.604 493.081C145.717 493.3 145.774 493.546 145.774 493.819V493.833C145.774 494.289 145.651 494.69 145.405 495.036C145.164 495.382 144.824 495.654 144.387 495.85C143.954 496.041 143.45 496.137 142.876 496.137ZM152.59 496V492.664H148.939V496H147.75V488.631H148.939V491.68H152.59V488.631H153.779V496H152.59ZM158.147 496.13C157.683 496.13 157.263 496.041 156.89 495.863C156.521 495.686 156.227 495.433 156.008 495.104C155.794 494.776 155.687 494.389 155.687 493.942V493.929C155.687 493.491 155.791 493.118 156.001 492.808C156.211 492.493 156.516 492.247 156.917 492.069C157.318 491.892 157.803 491.787 158.373 491.755L161.08 491.591V492.541L158.517 492.705C157.956 492.737 157.546 492.853 157.286 493.054C157.031 493.254 156.903 493.537 156.903 493.901V493.915C156.903 494.289 157.045 494.58 157.327 494.79C157.61 494.995 157.965 495.098 158.394 495.098C158.799 495.098 159.159 495.018 159.474 494.858C159.788 494.694 160.034 494.473 160.212 494.195C160.394 493.917 160.485 493.603 160.485 493.252V490.955C160.485 490.499 160.346 490.153 160.068 489.916C159.795 489.674 159.382 489.554 158.831 489.554C158.389 489.554 158.027 489.633 157.744 489.793C157.462 489.948 157.272 490.169 157.177 490.456L157.17 490.477H155.98L155.987 490.436C156.051 490.048 156.211 489.711 156.466 489.424C156.726 489.132 157.061 488.907 157.471 488.747C157.881 488.583 158.348 488.501 158.872 488.501C159.474 488.501 159.982 488.599 160.396 488.795C160.816 488.991 161.132 489.273 161.347 489.643C161.565 490.007 161.675 490.445 161.675 490.955V496H160.485V494.913H160.376C160.221 495.173 160.032 495.394 159.809 495.576C159.59 495.758 159.341 495.897 159.063 495.993C158.785 496.084 158.48 496.13 158.147 496.13ZM169.317 488.631V489.615H166.932V496H165.742V489.615H163.356V488.631H169.317ZM171.033 496V488.631H172.223V490.996H173.665C174.508 490.996 175.18 491.222 175.682 491.673C176.183 492.124 176.434 492.73 176.434 493.491V493.505C176.434 494.266 176.183 494.872 175.682 495.323C175.18 495.774 174.508 496 173.665 496H171.033ZM173.665 491.98H172.223V495.016H173.665C174.153 495.016 174.538 494.879 174.82 494.605C175.103 494.327 175.244 493.961 175.244 493.505V493.491C175.244 493.031 175.101 492.664 174.813 492.391C174.531 492.117 174.148 491.98 173.665 491.98ZM182.203 496V488.631H188.164V496H186.975V489.615H183.393V496H182.203ZM190.509 498.461V488.631H191.698V489.807H191.808C191.958 489.533 192.147 489.301 192.375 489.109C192.603 488.913 192.863 488.763 193.154 488.658C193.446 488.553 193.763 488.501 194.104 488.501C194.729 488.501 195.271 488.66 195.731 488.979C196.196 489.294 196.556 489.736 196.812 490.306C197.067 490.875 197.194 491.543 197.194 492.309V492.322C197.194 493.092 197.067 493.762 196.812 494.332C196.556 494.902 196.196 495.344 195.731 495.658C195.271 495.973 194.729 496.13 194.104 496.13C193.767 496.13 193.448 496.077 193.147 495.973C192.851 495.863 192.587 495.713 192.354 495.521C192.127 495.33 191.944 495.102 191.808 494.838H191.698V498.461H190.509ZM193.831 495.077C194.282 495.077 194.667 494.968 194.986 494.749C195.305 494.526 195.549 494.209 195.718 493.799C195.891 493.384 195.978 492.892 195.978 492.322V492.309C195.978 491.734 195.891 491.242 195.718 490.832C195.549 490.422 195.305 490.107 194.986 489.889C194.667 489.665 194.282 489.554 193.831 489.554C193.384 489.554 192.999 489.665 192.676 489.889C192.352 490.112 192.104 490.429 191.931 490.839C191.757 491.249 191.671 491.739 191.671 492.309V492.322C191.671 492.887 191.757 493.377 191.931 493.792C192.104 494.202 192.352 494.519 192.676 494.742C192.999 494.965 193.384 495.077 193.831 495.077ZM202.219 496.13C201.521 496.13 200.918 495.977 200.407 495.672C199.901 495.362 199.509 494.922 199.231 494.353C198.958 493.783 198.821 493.106 198.821 492.322V492.309C198.821 491.52 198.958 490.841 199.231 490.271C199.509 489.702 199.901 489.264 200.407 488.959C200.918 488.654 201.521 488.501 202.219 488.501C202.921 488.501 203.524 488.654 204.03 488.959C204.536 489.264 204.926 489.702 205.199 490.271C205.477 490.841 205.616 491.52 205.616 492.309V492.322C205.616 493.106 205.477 493.783 205.199 494.353C204.926 494.922 204.536 495.362 204.03 495.672C203.524 495.977 202.921 496.13 202.219 496.13ZM202.219 495.077C202.684 495.077 203.078 494.968 203.401 494.749C203.725 494.53 203.971 494.216 204.14 493.806C204.313 493.396 204.399 492.901 204.399 492.322V492.309C204.399 491.725 204.313 491.229 204.14 490.818C203.971 490.408 203.725 490.096 203.401 489.882C203.078 489.663 202.684 489.554 202.219 489.554C201.754 489.554 201.36 489.663 201.036 489.882C200.713 490.096 200.464 490.408 200.291 490.818C200.122 491.229 200.038 491.725 200.038 492.309V492.322C200.038 492.901 200.122 493.396 200.291 493.806C200.464 494.216 200.713 494.53 201.036 494.749C201.36 494.968 201.754 495.077 202.219 495.077ZM214.551 496.13C213.863 496.13 213.266 495.973 212.76 495.658C212.254 495.344 211.862 494.899 211.584 494.325C211.306 493.751 211.167 493.074 211.167 492.295V492.281C211.167 491.516 211.304 490.85 211.577 490.285C211.855 489.72 212.247 489.283 212.753 488.973C213.259 488.658 213.856 488.501 214.544 488.501C215.141 488.501 215.656 488.606 216.089 488.815C216.522 489.025 216.868 489.308 217.128 489.663C217.388 490.014 217.554 490.408 217.627 490.846L217.634 490.887H216.451L216.444 490.866C216.353 490.502 216.146 490.192 215.822 489.937C215.499 489.681 215.073 489.554 214.544 489.554C214.102 489.554 213.719 489.665 213.396 489.889C213.072 490.112 212.821 490.429 212.644 490.839C212.47 491.244 212.384 491.725 212.384 492.281V492.295C212.384 492.86 212.473 493.352 212.65 493.771C212.828 494.186 213.079 494.507 213.402 494.735C213.726 494.963 214.106 495.077 214.544 495.077C215.041 495.077 215.446 494.97 215.761 494.756C216.075 494.542 216.301 494.229 216.438 493.819L216.451 493.778L217.627 493.771L217.613 493.847C217.513 494.289 217.335 494.683 217.08 495.029C216.825 495.371 216.488 495.64 216.068 495.836C215.649 496.032 215.143 496.13 214.551 496.13ZM222.515 496.13C221.813 496.13 221.209 495.975 220.703 495.665C220.202 495.355 219.814 494.918 219.541 494.353C219.272 493.783 219.138 493.113 219.138 492.343V492.336C219.138 491.575 219.272 490.907 219.541 490.333C219.814 489.759 220.2 489.31 220.696 488.986C221.193 488.663 221.774 488.501 222.439 488.501C223.109 488.501 223.684 488.656 224.162 488.966C224.645 489.276 225.014 489.709 225.27 490.265C225.529 490.816 225.659 491.459 225.659 492.192V492.657H219.753V491.707H225.051L224.463 492.575V492.104C224.463 491.525 224.376 491.049 224.203 490.675C224.03 490.301 223.791 490.023 223.485 489.841C223.18 489.654 222.829 489.561 222.433 489.561C222.036 489.561 221.681 489.659 221.366 489.854C221.056 490.046 220.81 490.331 220.628 490.709C220.446 491.087 220.354 491.552 220.354 492.104V492.575C220.354 493.099 220.443 493.548 220.621 493.922C220.799 494.291 221.052 494.576 221.38 494.776C221.708 494.972 222.095 495.07 222.542 495.07C222.875 495.07 223.164 495.025 223.41 494.934C223.656 494.842 223.859 494.726 224.019 494.585C224.178 494.444 224.29 494.3 224.354 494.154L224.381 494.093H225.57L225.557 494.147C225.493 494.398 225.379 494.642 225.215 494.879C225.055 495.111 224.848 495.323 224.593 495.515C224.338 495.701 224.035 495.852 223.684 495.966C223.337 496.075 222.948 496.13 222.515 496.13ZM227.642 498.461V488.631H228.831V489.807H228.94C229.091 489.533 229.28 489.301 229.508 489.109C229.736 488.913 229.995 488.763 230.287 488.658C230.579 488.553 230.896 488.501 231.237 488.501C231.862 488.501 232.404 488.66 232.864 488.979C233.329 489.294 233.689 489.736 233.944 490.306C234.2 490.875 234.327 491.543 234.327 492.309V492.322C234.327 493.092 234.2 493.762 233.944 494.332C233.689 494.902 233.329 495.344 232.864 495.658C232.404 495.973 231.862 496.13 231.237 496.13C230.9 496.13 230.581 496.077 230.28 495.973C229.984 495.863 229.72 495.713 229.487 495.521C229.259 495.33 229.077 495.102 228.94 494.838H228.831V498.461H227.642ZM230.964 495.077C231.415 495.077 231.8 494.968 232.119 494.749C232.438 494.526 232.682 494.209 232.851 493.799C233.024 493.384 233.11 492.892 233.11 492.322V492.309C233.11 491.734 233.024 491.242 232.851 490.832C232.682 490.422 232.438 490.107 232.119 489.889C231.8 489.665 231.415 489.554 230.964 489.554C230.517 489.554 230.132 489.665 229.809 489.889C229.485 490.112 229.237 490.429 229.063 490.839C228.89 491.249 228.804 491.739 228.804 492.309V492.322C228.804 492.887 228.89 493.377 229.063 493.792C229.237 494.202 229.485 494.519 229.809 494.742C230.132 494.965 230.517 495.077 230.964 495.077ZM236.316 496V488.631H239.44C240.138 488.631 240.68 488.806 241.067 489.157C241.455 489.504 241.648 489.966 241.648 490.545V490.559C241.648 490.923 241.535 491.258 241.307 491.563C241.079 491.864 240.792 492.051 240.445 492.124V492.233C240.76 492.274 241.031 492.372 241.259 492.527C241.487 492.678 241.662 492.869 241.785 493.102C241.913 493.329 241.977 493.587 241.977 493.874V493.888C241.977 494.312 241.876 494.683 241.676 495.002C241.475 495.316 241.186 495.562 240.808 495.74C240.434 495.913 239.983 496 239.454 496H236.316ZM237.506 495.016H239.406C239.857 495.016 240.197 494.918 240.425 494.722C240.653 494.521 240.767 494.236 240.767 493.867V493.854C240.767 493.462 240.634 493.177 240.37 492.999C240.106 492.821 239.709 492.732 239.181 492.732H237.506V495.016ZM237.506 491.748H239.078C239.557 491.748 239.908 491.657 240.131 491.475C240.354 491.292 240.466 491.028 240.466 490.682V490.668C240.466 490.354 240.37 490.101 240.179 489.909C239.987 489.713 239.684 489.615 239.27 489.615H237.506V491.748ZM243.986 496V488.631H245.176V494.127H245.805L244.998 494.564L248.929 488.631H250.118V496H248.929V490.504H248.3L249.106 490.066L245.176 496H243.986ZM255.484 496.13C254.796 496.13 254.199 495.973 253.693 495.658C253.188 495.344 252.796 494.899 252.518 494.325C252.24 493.751 252.101 493.074 252.101 492.295V492.281C252.101 491.516 252.237 490.85 252.511 490.285C252.789 489.72 253.181 489.283 253.687 488.973C254.192 488.658 254.789 488.501 255.478 488.501C256.075 488.501 256.59 488.606 257.022 488.815C257.455 489.025 257.802 489.308 258.062 489.663C258.321 490.014 258.488 490.408 258.561 490.846L258.567 490.887H257.385L257.378 490.866C257.287 490.502 257.079 490.192 256.756 489.937C256.432 489.681 256.006 489.554 255.478 489.554C255.035 489.554 254.653 489.665 254.329 489.889C254.006 490.112 253.755 490.429 253.577 490.839C253.404 491.244 253.317 491.725 253.317 492.281V492.295C253.317 492.86 253.406 493.352 253.584 493.771C253.762 494.186 254.012 494.507 254.336 494.735C254.66 494.963 255.04 495.077 255.478 495.077C255.974 495.077 256.38 494.97 256.694 494.756C257.009 494.542 257.234 494.229 257.371 493.819L257.385 493.778L258.561 493.771L258.547 493.847C258.447 494.289 258.269 494.683 258.014 495.029C257.758 495.371 257.421 495.64 257.002 495.836C256.583 496.032 256.077 496.13 255.484 496.13Z" fill="white"/>
<rect x="16" y="521" width="175" height="44" rx="5" fill="#3A4030"/>
<path d="M69.4639 548.232C68.5706 548.232 67.7982 548.023 67.1465 547.604C66.4948 547.184 65.9912 546.59 65.6357 545.819C65.2848 545.049 65.1094 544.135 65.1094 543.078V543.064C65.1094 542.003 65.2848 541.087 65.6357 540.316C65.9912 539.546 66.4925 538.951 67.1396 538.532C67.7913 538.113 68.5638 537.903 69.457 537.903C70.1497 537.903 70.7786 538.04 71.3438 538.313C71.9134 538.582 72.3828 538.958 72.752 539.441C73.1211 539.92 73.3535 540.474 73.4492 541.103L73.4424 541.116H72.2051L72.1982 541.103C72.0889 540.679 71.9043 540.314 71.6445 540.009C71.3848 539.699 71.068 539.46 70.6943 539.291C70.3252 539.122 69.9128 539.038 69.457 539.038C68.8281 539.038 68.2812 539.202 67.8164 539.53C67.3561 539.858 67.0007 540.323 66.75 540.925C66.4993 541.526 66.374 542.24 66.374 543.064V543.078C66.374 543.898 66.4993 544.609 66.75 545.211C67.0007 545.812 67.3561 546.277 67.8164 546.605C68.2812 546.934 68.8304 547.098 69.4639 547.098C69.9242 547.098 70.3411 547.025 70.7148 546.879C71.0885 546.729 71.403 546.517 71.6582 546.243C71.9134 545.965 72.0911 545.637 72.1914 545.259L72.2051 545.245H73.4492V545.259C73.3398 545.86 73.1029 546.384 72.7383 546.831C72.3737 547.273 71.9111 547.617 71.3506 547.863C70.7946 548.109 70.1657 548.232 69.4639 548.232ZM80.5586 540.631V541.615H78.1729V548H76.9834V541.615H74.5977V540.631H80.5586ZM84.209 548.13C83.7441 548.13 83.3249 548.041 82.9512 547.863C82.582 547.686 82.2881 547.433 82.0693 547.104C81.8551 546.776 81.748 546.389 81.748 545.942V545.929C81.748 545.491 81.8529 545.118 82.0625 544.808C82.2721 544.493 82.5775 544.247 82.9785 544.069C83.3796 543.892 83.8649 543.787 84.4346 543.755L87.1416 543.591V544.541L84.5781 544.705C84.0176 544.737 83.6074 544.853 83.3477 545.054C83.0924 545.254 82.9648 545.537 82.9648 545.901V545.915C82.9648 546.289 83.1061 546.58 83.3887 546.79C83.6712 546.995 84.0267 547.098 84.4551 547.098C84.8607 547.098 85.2207 547.018 85.5352 546.858C85.8496 546.694 86.0957 546.473 86.2734 546.195C86.4557 545.917 86.5469 545.603 86.5469 545.252V542.955C86.5469 542.499 86.4079 542.153 86.1299 541.916C85.8564 541.674 85.444 541.554 84.8926 541.554C84.4505 541.554 84.0882 541.633 83.8057 541.793C83.5231 541.948 83.334 542.169 83.2383 542.456L83.2314 542.477H82.042L82.0488 542.436C82.1126 542.048 82.2721 541.711 82.5273 541.424C82.7871 541.132 83.1221 540.907 83.5322 540.747C83.9424 540.583 84.4095 540.501 84.9336 540.501C85.5352 540.501 86.0433 540.599 86.458 540.795C86.8773 540.991 87.194 541.273 87.4082 541.643C87.627 542.007 87.7363 542.445 87.7363 542.955V548H86.5469V546.913H86.4375C86.2826 547.173 86.0934 547.394 85.8701 547.576C85.6514 547.758 85.403 547.897 85.125 547.993C84.847 548.084 84.5417 548.13 84.209 548.13ZM95.3789 540.631V541.615H92.9932V548H91.8037V541.615H89.418V540.631H95.3789ZM97.0947 548V540.631H98.2842V546.127H98.9131L98.1064 546.564L102.037 540.631H103.227V548H102.037V542.504H101.408L102.215 542.066L98.2842 548H97.0947ZM108.593 548.13C107.905 548.13 107.308 547.973 106.802 547.658C106.296 547.344 105.904 546.899 105.626 546.325C105.348 545.751 105.209 545.074 105.209 544.295V544.281C105.209 543.516 105.346 542.85 105.619 542.285C105.897 541.72 106.289 541.283 106.795 540.973C107.301 540.658 107.898 540.501 108.586 540.501C109.183 540.501 109.698 540.606 110.131 540.815C110.564 541.025 110.91 541.308 111.17 541.663C111.43 542.014 111.596 542.408 111.669 542.846L111.676 542.887H110.493L110.486 542.866C110.395 542.502 110.188 542.192 109.864 541.937C109.541 541.681 109.115 541.554 108.586 541.554C108.144 541.554 107.761 541.665 107.438 541.889C107.114 542.112 106.863 542.429 106.686 542.839C106.512 543.244 106.426 543.725 106.426 544.281V544.295C106.426 544.86 106.515 545.352 106.692 545.771C106.87 546.186 107.121 546.507 107.444 546.735C107.768 546.963 108.148 547.077 108.586 547.077C109.083 547.077 109.488 546.97 109.803 546.756C110.117 546.542 110.343 546.229 110.479 545.819L110.493 545.778L111.669 545.771L111.655 545.847C111.555 546.289 111.377 546.683 111.122 547.029C110.867 547.371 110.53 547.64 110.11 547.836C109.691 548.032 109.185 548.13 108.593 548.13ZM118.539 540.631V541.615H116.153V548H114.964V541.615H112.578V540.631H118.539ZM120.255 548V540.631H121.444V546.127H122.073L121.267 546.564L125.197 540.631H126.387V548H125.197V542.504H124.568L125.375 542.066L121.444 548H120.255ZM130.297 544.644H129.921V548H128.731V540.631H129.921V543.714H130.297L133.147 540.631H134.576L131.165 544.206V543.994L134.706 548H133.182L130.297 544.644ZM138.172 548.13C137.707 548.13 137.288 548.041 136.914 547.863C136.545 547.686 136.251 547.433 136.032 547.104C135.818 546.776 135.711 546.389 135.711 545.942V545.929C135.711 545.491 135.816 545.118 136.025 544.808C136.235 544.493 136.54 544.247 136.941 544.069C137.342 543.892 137.828 543.787 138.397 543.755L141.104 543.591V544.541L138.541 544.705C137.98 544.737 137.57 544.853 137.311 545.054C137.055 545.254 136.928 545.537 136.928 545.901V545.915C136.928 546.289 137.069 546.58 137.352 546.79C137.634 546.995 137.99 547.098 138.418 547.098C138.824 547.098 139.184 547.018 139.498 546.858C139.812 546.694 140.059 546.473 140.236 546.195C140.419 545.917 140.51 545.603 140.51 545.252V542.955C140.51 542.499 140.371 542.153 140.093 541.916C139.819 541.674 139.407 541.554 138.855 541.554C138.413 541.554 138.051 541.633 137.769 541.793C137.486 541.948 137.297 542.169 137.201 542.456L137.194 542.477H136.005L136.012 542.436C136.076 542.048 136.235 541.711 136.49 541.424C136.75 541.132 137.085 540.907 137.495 540.747C137.905 540.583 138.372 540.501 138.896 540.501C139.498 540.501 140.006 540.599 140.421 540.795C140.84 540.991 141.157 541.273 141.371 541.643C141.59 542.007 141.699 542.445 141.699 542.955V548H140.51V546.913H140.4C140.245 547.173 140.056 547.394 139.833 547.576C139.614 547.758 139.366 547.897 139.088 547.993C138.81 548.084 138.505 548.13 138.172 548.13Z" fill="white"/>
<rect x="199" y="521" width="175" height="44" rx="5" fill="#3A4030"/>
<path d="M270.798 538.136H272.028V546.893H277.306V538.136H278.536V548H270.798V538.136ZM278.652 549.948V548H277.319V546.893H279.787V549.948H278.652ZM284.456 548.13C283.754 548.13 283.15 547.975 282.645 547.665C282.143 547.355 281.756 546.918 281.482 546.353C281.214 545.783 281.079 545.113 281.079 544.343V544.336C281.079 543.575 281.214 542.907 281.482 542.333C281.756 541.759 282.141 541.31 282.638 540.986C283.134 540.663 283.715 540.501 284.381 540.501C285.051 540.501 285.625 540.656 286.104 540.966C286.587 541.276 286.956 541.709 287.211 542.265C287.471 542.816 287.601 543.459 287.601 544.192V544.657H281.694V543.707H286.992L286.404 544.575V544.104C286.404 543.525 286.318 543.049 286.145 542.675C285.971 542.301 285.732 542.023 285.427 541.841C285.121 541.654 284.771 541.561 284.374 541.561C283.978 541.561 283.622 541.659 283.308 541.854C282.998 542.046 282.752 542.331 282.569 542.709C282.387 543.087 282.296 543.552 282.296 544.104V544.575C282.296 545.099 282.385 545.548 282.562 545.922C282.74 546.291 282.993 546.576 283.321 546.776C283.649 546.972 284.037 547.07 284.483 547.07C284.816 547.07 285.105 547.025 285.352 546.934C285.598 546.842 285.8 546.726 285.96 546.585C286.119 546.444 286.231 546.3 286.295 546.154L286.322 546.093H287.512L287.498 546.147C287.434 546.398 287.32 546.642 287.156 546.879C286.997 547.111 286.789 547.323 286.534 547.515C286.279 547.701 285.976 547.852 285.625 547.966C285.279 548.075 284.889 548.13 284.456 548.13ZM291.101 545.115C291.05 545.79 290.943 546.346 290.779 546.783C290.62 547.221 290.399 547.544 290.116 547.754C289.838 547.964 289.494 548.068 289.084 548.068C288.956 548.068 288.847 548.059 288.756 548.041C288.665 548.027 288.594 548.011 288.544 547.993V546.92C288.576 546.929 288.633 546.94 288.715 546.954C288.797 546.963 288.881 546.968 288.968 546.968C289.196 546.968 289.38 546.881 289.521 546.708C289.663 546.535 289.77 546.302 289.843 546.011C289.92 545.715 289.97 545.384 289.993 545.02L290.308 540.631H295.127V548H293.938V541.615H291.374L291.101 545.115ZM297.465 548V540.631H298.654V542.996H300.097C300.94 542.996 301.612 543.222 302.113 543.673C302.615 544.124 302.865 544.73 302.865 545.491V545.505C302.865 546.266 302.615 546.872 302.113 547.323C301.612 547.774 300.94 548 300.097 548H297.465ZM300.097 543.98H298.654V547.016H300.097C300.584 547.016 300.969 546.879 301.252 546.605C301.535 546.327 301.676 545.961 301.676 545.505V545.491C301.676 545.031 301.532 544.664 301.245 544.391C300.963 544.117 300.58 543.98 300.097 543.98Z" fill="white"/>
<rect x="16.5" y="573.5" width="357" height="43" rx="4.5" fill="#D9FF9A"/>
<rect x="16.5" y="573.5" width="357" height="43" rx="4.5" stroke="#4E4E4E"/>
<path d="M116.94 600H115.71V591.243H110.433V600H109.202V590.136H116.94V600ZM119.442 602.461V592.631H120.632V593.807H120.741C120.892 593.533 121.081 593.301 121.309 593.109C121.536 592.913 121.796 592.763 122.088 592.658C122.38 592.553 122.696 592.501 123.038 592.501C123.662 592.501 124.205 592.66 124.665 592.979C125.13 593.294 125.49 593.736 125.745 594.306C126 594.875 126.128 595.543 126.128 596.309V596.322C126.128 597.092 126 597.762 125.745 598.332C125.49 598.902 125.13 599.344 124.665 599.658C124.205 599.973 123.662 600.13 123.038 600.13C122.701 600.13 122.382 600.077 122.081 599.973C121.785 599.863 121.521 599.713 121.288 599.521C121.06 599.33 120.878 599.102 120.741 598.838H120.632V602.461H119.442ZM122.765 599.077C123.216 599.077 123.601 598.968 123.92 598.749C124.239 598.526 124.483 598.209 124.651 597.799C124.825 597.384 124.911 596.892 124.911 596.322V596.309C124.911 595.734 124.825 595.242 124.651 594.832C124.483 594.422 124.239 594.107 123.92 593.889C123.601 593.665 123.216 593.554 122.765 593.554C122.318 593.554 121.933 593.665 121.609 593.889C121.286 594.112 121.037 594.429 120.864 594.839C120.691 595.249 120.604 595.739 120.604 596.309V596.322C120.604 596.887 120.691 597.377 120.864 597.792C121.037 598.202 121.286 598.519 121.609 598.742C121.933 598.965 122.318 599.077 122.765 599.077ZM131.152 600.13C130.455 600.13 129.851 599.977 129.341 599.672C128.835 599.362 128.443 598.922 128.165 598.353C127.892 597.783 127.755 597.106 127.755 596.322V596.309C127.755 595.52 127.892 594.841 128.165 594.271C128.443 593.702 128.835 593.264 129.341 592.959C129.851 592.654 130.455 592.501 131.152 592.501C131.854 592.501 132.458 592.654 132.964 592.959C133.47 593.264 133.859 593.702 134.133 594.271C134.411 594.841 134.55 595.52 134.55 596.309V596.322C134.55 597.106 134.411 597.783 134.133 598.353C133.859 598.922 133.47 599.362 132.964 599.672C132.458 599.977 131.854 600.13 131.152 600.13ZM131.152 599.077C131.617 599.077 132.011 598.968 132.335 598.749C132.659 598.53 132.905 598.216 133.073 597.806C133.246 597.396 133.333 596.901 133.333 596.322V596.309C133.333 595.725 133.246 595.229 133.073 594.818C132.905 594.408 132.659 594.096 132.335 593.882C132.011 593.663 131.617 593.554 131.152 593.554C130.688 593.554 130.293 593.663 129.97 593.882C129.646 594.096 129.398 594.408 129.225 594.818C129.056 595.229 128.972 595.725 128.972 596.309V596.322C128.972 596.901 129.056 597.396 129.225 597.806C129.398 598.216 129.646 598.53 129.97 598.749C130.293 598.968 130.688 599.077 131.152 599.077ZM138.556 600.13C138.091 600.13 137.672 600.041 137.298 599.863C136.929 599.686 136.635 599.433 136.416 599.104C136.202 598.776 136.095 598.389 136.095 597.942V597.929C136.095 597.491 136.2 597.118 136.409 596.808C136.619 596.493 136.924 596.247 137.325 596.069C137.726 595.892 138.212 595.787 138.781 595.755L141.488 595.591V596.541L138.925 596.705C138.364 596.737 137.954 596.853 137.694 597.054C137.439 597.254 137.312 597.537 137.312 597.901V597.915C137.312 598.289 137.453 598.58 137.735 598.79C138.018 598.995 138.373 599.098 138.802 599.098C139.207 599.098 139.567 599.018 139.882 598.858C140.196 598.694 140.442 598.473 140.62 598.195C140.802 597.917 140.894 597.603 140.894 597.252V594.955C140.894 594.499 140.755 594.153 140.477 593.916C140.203 593.674 139.791 593.554 139.239 593.554C138.797 593.554 138.435 593.633 138.152 593.793C137.87 593.948 137.681 594.169 137.585 594.456L137.578 594.477H136.389L136.396 594.436C136.459 594.048 136.619 593.711 136.874 593.424C137.134 593.132 137.469 592.907 137.879 592.747C138.289 592.583 138.756 592.501 139.28 592.501C139.882 592.501 140.39 592.599 140.805 592.795C141.224 592.991 141.541 593.273 141.755 593.643C141.974 594.007 142.083 594.445 142.083 594.955V600H140.894V598.913H140.784C140.629 599.173 140.44 599.394 140.217 599.576C139.998 599.758 139.75 599.897 139.472 599.993C139.194 600.084 138.888 600.13 138.556 600.13ZM149.227 600V596.664H145.576V600H144.387V592.631H145.576V595.68H149.227V592.631H150.416V600H149.227ZM154.784 600.13C154.319 600.13 153.9 600.041 153.526 599.863C153.157 599.686 152.863 599.433 152.645 599.104C152.43 598.776 152.323 598.389 152.323 597.942V597.929C152.323 597.491 152.428 597.118 152.638 596.808C152.847 596.493 153.153 596.247 153.554 596.069C153.955 595.892 154.44 595.787 155.01 595.755L157.717 595.591V596.541L155.153 596.705C154.593 596.737 154.183 596.853 153.923 597.054C153.668 597.254 153.54 597.537 153.54 597.901V597.915C153.54 598.289 153.681 598.58 153.964 598.79C154.246 598.995 154.602 599.098 155.03 599.098C155.436 599.098 155.796 599.018 156.11 598.858C156.425 598.694 156.671 598.473 156.849 598.195C157.031 597.917 157.122 597.603 157.122 597.252V594.955C157.122 594.499 156.983 594.153 156.705 593.916C156.432 593.674 156.019 593.554 155.468 593.554C155.026 593.554 154.663 593.633 154.381 593.793C154.098 593.948 153.909 594.169 153.813 594.456L153.807 594.477H152.617L152.624 594.436C152.688 594.048 152.847 593.711 153.103 593.424C153.362 593.132 153.697 592.907 154.107 592.747C154.518 592.583 154.985 592.501 155.509 592.501C156.11 592.501 156.618 592.599 157.033 592.795C157.452 592.991 157.769 593.273 157.983 593.643C158.202 594.007 158.312 594.445 158.312 594.955V600H157.122V598.913H157.013C156.858 599.173 156.669 599.394 156.445 599.576C156.227 599.758 155.978 599.897 155.7 599.993C155.422 600.084 155.117 600.13 154.784 600.13ZM162.345 597.115C162.295 597.79 162.188 598.346 162.023 598.783C161.864 599.221 161.643 599.544 161.36 599.754C161.082 599.964 160.738 600.068 160.328 600.068C160.201 600.068 160.091 600.059 160 600.041C159.909 600.027 159.838 600.011 159.788 599.993V598.92C159.82 598.929 159.877 598.94 159.959 598.954C160.041 598.963 160.125 598.968 160.212 598.968C160.44 598.968 160.624 598.881 160.766 598.708C160.907 598.535 161.014 598.302 161.087 598.011C161.164 597.715 161.215 597.384 161.237 597.02L161.552 592.631H166.371V600H165.182V593.615H162.618L162.345 597.115ZM168.709 600V592.631H169.898V598.127H170.527L169.721 598.564L173.651 592.631H174.841V600H173.651V594.504H173.022L173.829 594.066L169.898 600H168.709ZM179.694 600.137C179.17 600.137 178.696 600.055 178.272 599.891C177.853 599.727 177.511 599.499 177.247 599.207C176.983 598.911 176.826 598.564 176.775 598.168L176.769 598.113H177.979L177.992 598.168C178.07 598.469 178.261 598.708 178.566 598.886C178.872 599.063 179.248 599.152 179.694 599.152C180.237 599.152 180.66 599.034 180.966 598.797C181.271 598.56 181.424 598.259 181.424 597.895V597.881C181.424 597.48 181.276 597.186 180.979 596.999C180.688 596.808 180.259 596.712 179.694 596.712H178.546V595.728H179.694C180.168 595.728 180.531 595.634 180.781 595.447C181.036 595.256 181.164 594.969 181.164 594.586V594.572C181.164 594.258 181.043 593.998 180.802 593.793C180.565 593.583 180.209 593.479 179.735 593.479C179.316 593.479 178.961 593.565 178.669 593.738C178.377 593.911 178.202 594.146 178.143 594.442L178.136 594.477H176.974L176.98 594.429C177.04 594.032 177.19 593.69 177.432 593.403C177.678 593.112 177.997 592.888 178.389 592.733C178.785 592.574 179.234 592.494 179.735 592.494C180.287 592.494 180.754 592.578 181.137 592.747C181.524 592.916 181.818 593.15 182.019 593.451C182.224 593.747 182.326 594.091 182.326 594.483V594.497C182.326 594.871 182.215 595.208 181.991 595.509C181.768 595.81 181.474 596.003 181.109 596.09V596.199C181.433 596.268 181.704 596.377 181.923 596.527C182.146 596.678 182.312 596.862 182.422 597.081C182.536 597.3 182.593 597.546 182.593 597.819V597.833C182.593 598.289 182.47 598.69 182.224 599.036C181.982 599.382 181.643 599.654 181.205 599.85C180.772 600.041 180.269 600.137 179.694 600.137ZM184.568 600V592.631H185.758V598.127H186.387L185.58 598.564L189.511 592.631H190.7V600H189.511V594.504H188.882L189.688 594.066L185.758 600H184.568ZM193.052 602.461V592.631H194.241V593.807H194.351C194.501 593.533 194.69 593.301 194.918 593.109C195.146 592.913 195.406 592.763 195.697 592.658C195.989 592.553 196.306 592.501 196.647 592.501C197.272 592.501 197.814 592.66 198.274 592.979C198.739 593.294 199.099 593.736 199.354 594.306C199.61 594.875 199.737 595.543 199.737 596.309V596.322C199.737 597.092 199.61 597.762 199.354 598.332C199.099 598.902 198.739 599.344 198.274 599.658C197.814 599.973 197.272 600.13 196.647 600.13C196.31 600.13 195.991 600.077 195.69 599.973C195.394 599.863 195.13 599.713 194.897 599.521C194.67 599.33 194.487 599.102 194.351 598.838H194.241V602.461H193.052ZM196.374 599.077C196.825 599.077 197.21 598.968 197.529 598.749C197.848 598.526 198.092 598.209 198.261 597.799C198.434 597.384 198.521 596.892 198.521 596.322V596.309C198.521 595.734 198.434 595.242 198.261 594.832C198.092 594.422 197.848 594.107 197.529 593.889C197.21 593.665 196.825 593.554 196.374 593.554C195.927 593.554 195.542 593.665 195.219 593.889C194.895 594.112 194.647 594.429 194.474 594.839C194.3 595.249 194.214 595.739 194.214 596.309V596.322C194.214 596.887 194.3 597.377 194.474 597.792C194.647 598.202 194.895 598.519 195.219 598.742C195.542 598.965 195.927 599.077 196.374 599.077ZM204.762 600.13C204.064 600.13 203.461 599.977 202.95 599.672C202.444 599.362 202.052 598.922 201.774 598.353C201.501 597.783 201.364 597.106 201.364 596.322V596.309C201.364 595.52 201.501 594.841 201.774 594.271C202.052 593.702 202.444 593.264 202.95 592.959C203.461 592.654 204.064 592.501 204.762 592.501C205.464 592.501 206.067 592.654 206.573 592.959C207.079 593.264 207.469 593.702 207.742 594.271C208.02 594.841 208.159 595.52 208.159 596.309V596.322C208.159 597.106 208.02 597.783 207.742 598.353C207.469 598.922 207.079 599.362 206.573 599.672C206.067 599.977 205.464 600.13 204.762 600.13ZM204.762 599.077C205.227 599.077 205.621 598.968 205.944 598.749C206.268 598.53 206.514 598.216 206.683 597.806C206.856 597.396 206.942 596.901 206.942 596.322V596.309C206.942 595.725 206.856 595.229 206.683 594.818C206.514 594.408 206.268 594.096 205.944 593.882C205.621 593.663 205.227 593.554 204.762 593.554C204.297 593.554 203.903 593.663 203.579 593.882C203.256 594.096 203.007 594.408 202.834 594.818C202.665 595.229 202.581 595.725 202.581 596.309V596.322C202.581 596.901 202.665 597.396 202.834 597.806C203.007 598.216 203.256 598.53 203.579 598.749C203.903 598.968 204.297 599.077 204.762 599.077ZM210.135 600V592.631H213.259C213.956 592.631 214.498 592.806 214.886 593.157C215.273 593.504 215.467 593.966 215.467 594.545V594.559C215.467 594.923 215.353 595.258 215.125 595.563C214.897 595.864 214.61 596.051 214.264 596.124V596.233C214.578 596.274 214.849 596.372 215.077 596.527C215.305 596.678 215.48 596.869 215.604 597.102C215.731 597.329 215.795 597.587 215.795 597.874V597.888C215.795 598.312 215.695 598.683 215.494 599.002C215.294 599.316 215.004 599.562 214.626 599.74C214.252 599.913 213.801 600 213.272 600H210.135ZM211.324 599.016H213.225C213.676 599.016 214.015 598.918 214.243 598.722C214.471 598.521 214.585 598.236 214.585 597.867V597.854C214.585 597.462 214.453 597.177 214.188 596.999C213.924 596.821 213.528 596.732 212.999 596.732H211.324V599.016ZM211.324 595.748H212.896C213.375 595.748 213.726 595.657 213.949 595.475C214.173 595.292 214.284 595.028 214.284 594.682V594.668C214.284 594.354 214.188 594.101 213.997 593.909C213.806 593.713 213.503 593.615 213.088 593.615H211.324V595.748ZM219.835 600.13C219.37 600.13 218.951 600.041 218.577 599.863C218.208 599.686 217.914 599.433 217.695 599.104C217.481 598.776 217.374 598.389 217.374 597.942V597.929C217.374 597.491 217.479 597.118 217.688 596.808C217.898 596.493 218.203 596.247 218.604 596.069C219.006 595.892 219.491 595.787 220.061 595.755L222.768 595.591V596.541L220.204 596.705C219.644 596.737 219.233 596.853 218.974 597.054C218.718 597.254 218.591 597.537 218.591 597.901V597.915C218.591 598.289 218.732 598.58 219.015 598.79C219.297 598.995 219.653 599.098 220.081 599.098C220.487 599.098 220.847 599.018 221.161 598.858C221.476 598.694 221.722 598.473 221.899 598.195C222.082 597.917 222.173 597.603 222.173 597.252V594.955C222.173 594.499 222.034 594.153 221.756 593.916C221.482 593.674 221.07 593.554 220.519 593.554C220.076 593.554 219.714 593.633 219.432 593.793C219.149 593.948 218.96 594.169 218.864 594.456L218.857 594.477H217.668L217.675 594.436C217.739 594.048 217.898 593.711 218.153 593.424C218.413 593.132 218.748 592.907 219.158 592.747C219.568 592.583 220.035 592.501 220.56 592.501C221.161 592.501 221.669 592.599 222.084 592.795C222.503 592.991 222.82 593.273 223.034 593.643C223.253 594.007 223.362 594.445 223.362 594.955V600H222.173V598.913H222.063C221.909 599.173 221.719 599.394 221.496 599.576C221.277 599.758 221.029 599.897 220.751 599.993C220.473 600.084 220.168 600.13 219.835 600.13ZM231.005 592.631V593.615H228.619V600H227.43V593.615H225.044V592.631H231.005ZM232.721 600V592.631H233.91V594.996H235.353C236.196 594.996 236.868 595.222 237.369 595.673C237.87 596.124 238.121 596.73 238.121 597.491V597.505C238.121 598.266 237.87 598.872 237.369 599.323C236.868 599.774 236.196 600 235.353 600H232.721ZM235.353 595.98H233.91V599.016H235.353C235.84 599.016 236.225 598.879 236.508 598.605C236.79 598.327 236.932 597.961 236.932 597.505V597.491C236.932 597.031 236.788 596.664 236.501 596.391C236.218 596.117 235.836 595.98 235.353 595.98ZM249.229 592.631V593.615H246.844V600H245.654V593.615H243.269V592.631H249.229ZM253.707 600.13C253.01 600.13 252.406 599.977 251.896 599.672C251.39 599.362 250.998 598.922 250.72 598.353C250.446 597.783 250.31 597.106 250.31 596.322V596.309C250.31 595.52 250.446 594.841 250.72 594.271C250.998 593.702 251.39 593.264 251.896 592.959C252.406 592.654 253.01 592.501 253.707 592.501C254.409 592.501 255.013 592.654 255.519 592.959C256.024 593.264 256.414 593.702 256.688 594.271C256.965 594.841 257.104 595.52 257.104 596.309V596.322C257.104 597.106 256.965 597.783 256.688 598.353C256.414 598.922 256.024 599.362 255.519 599.672C255.013 599.977 254.409 600.13 253.707 600.13ZM253.707 599.077C254.172 599.077 254.566 598.968 254.89 598.749C255.213 598.53 255.459 598.216 255.628 597.806C255.801 597.396 255.888 596.901 255.888 596.322V596.309C255.888 595.725 255.801 595.229 255.628 594.818C255.459 594.408 255.213 594.096 254.89 593.882C254.566 593.663 254.172 593.554 253.707 593.554C253.242 593.554 252.848 593.663 252.524 593.882C252.201 594.096 251.952 594.408 251.779 594.818C251.611 595.229 251.526 595.725 251.526 596.309V596.322C251.526 596.901 251.611 597.396 251.779 597.806C251.952 598.216 252.201 598.53 252.524 598.749C252.848 598.968 253.242 599.077 253.707 599.077ZM259.08 600V592.631H262.204C262.901 592.631 263.444 592.806 263.831 593.157C264.218 593.504 264.412 593.966 264.412 594.545V594.559C264.412 594.923 264.298 595.258 264.07 595.563C263.842 595.864 263.555 596.051 263.209 596.124V596.233C263.523 596.274 263.795 596.372 264.022 596.527C264.25 596.678 264.426 596.869 264.549 597.102C264.676 597.329 264.74 597.587 264.74 597.874V597.888C264.74 598.312 264.64 598.683 264.439 599.002C264.239 599.316 263.95 599.562 263.571 599.74C263.198 599.913 262.746 600 262.218 600H259.08ZM260.27 599.016H262.17C262.621 599.016 262.961 598.918 263.188 598.722C263.416 598.521 263.53 598.236 263.53 597.867V597.854C263.53 597.462 263.398 597.177 263.134 596.999C262.869 596.821 262.473 596.732 261.944 596.732H260.27V599.016ZM260.27 595.748H261.842C262.32 595.748 262.671 595.657 262.895 595.475C263.118 595.292 263.229 595.028 263.229 594.682V594.668C263.229 594.354 263.134 594.101 262.942 593.909C262.751 593.713 262.448 593.615 262.033 593.615H260.27V595.748ZM268.78 600.13C268.315 600.13 267.896 600.041 267.522 599.863C267.153 599.686 266.859 599.433 266.641 599.104C266.426 598.776 266.319 598.389 266.319 597.942V597.929C266.319 597.491 266.424 597.118 266.634 596.808C266.843 596.493 267.149 596.247 267.55 596.069C267.951 595.892 268.436 595.787 269.006 595.755L271.713 595.591V596.541L269.149 596.705C268.589 596.737 268.179 596.853 267.919 597.054C267.664 597.254 267.536 597.537 267.536 597.901V597.915C267.536 598.289 267.677 598.58 267.96 598.79C268.243 598.995 268.598 599.098 269.026 599.098C269.432 599.098 269.792 599.018 270.106 598.858C270.421 598.694 270.667 598.473 270.845 598.195C271.027 597.917 271.118 597.603 271.118 597.252V594.955C271.118 594.499 270.979 594.153 270.701 593.916C270.428 593.674 270.015 593.554 269.464 593.554C269.022 593.554 268.66 593.633 268.377 593.793C268.094 593.948 267.905 594.169 267.81 594.456L267.803 594.477H266.613L266.62 594.436C266.684 594.048 266.843 593.711 267.099 593.424C267.358 593.132 267.693 592.907 268.104 592.747C268.514 592.583 268.981 592.501 269.505 592.501C270.106 592.501 270.615 592.599 271.029 592.795C271.449 592.991 271.765 593.273 271.979 593.643C272.198 594.007 272.308 594.445 272.308 594.955V600H271.118V598.913H271.009C270.854 599.173 270.665 599.394 270.441 599.576C270.223 599.758 269.974 599.897 269.696 599.993C269.418 600.084 269.113 600.13 268.78 600.13ZM274.618 602.461V592.631H275.808V593.807H275.917C276.067 593.533 276.257 593.301 276.484 593.109C276.712 592.913 276.972 592.763 277.264 592.658C277.555 592.553 277.872 592.501 278.214 592.501C278.838 592.501 279.381 592.66 279.841 592.979C280.306 593.294 280.666 593.736 280.921 594.306C281.176 594.875 281.304 595.543 281.304 596.309V596.322C281.304 597.092 281.176 597.762 280.921 598.332C280.666 598.902 280.306 599.344 279.841 599.658C279.381 599.973 278.838 600.13 278.214 600.13C277.877 600.13 277.558 600.077 277.257 599.973C276.961 599.863 276.696 599.713 276.464 599.521C276.236 599.33 276.054 599.102 275.917 598.838H275.808V602.461H274.618ZM277.94 599.077C278.392 599.077 278.777 598.968 279.096 598.749C279.415 598.526 279.659 598.209 279.827 597.799C280 597.384 280.087 596.892 280.087 596.322V596.309C280.087 595.734 280 595.242 279.827 594.832C279.659 594.422 279.415 594.107 279.096 593.889C278.777 593.665 278.392 593.554 277.94 593.554C277.494 593.554 277.109 593.665 276.785 593.889C276.462 594.112 276.213 594.429 276.04 594.839C275.867 595.249 275.78 595.739 275.78 596.309V596.322C275.78 596.887 275.867 597.377 276.04 597.792C276.213 598.202 276.462 598.519 276.785 598.742C277.109 598.965 277.494 599.077 277.94 599.077Z" fill="#232323"/>
<rect x="16" y="681" width="358" height="54" rx="5" fill="url(#paint1_linear_287_298)"/>
<path d="M38.3906 713.5V712.258H41.875C42.724 712.258 43.3672 712.089 43.8047 711.75C44.2422 711.411 44.4609 710.919 44.4609 710.273V710.258C44.4609 709.826 44.3594 709.464 44.1562 709.172C43.9531 708.88 43.6484 708.661 43.2422 708.516C42.8411 708.37 42.3411 708.297 41.7422 708.297H38.3906V707.086H41.3438C42.1979 707.086 42.8385 706.935 43.2656 706.633C43.6979 706.331 43.9141 705.883 43.9141 705.289V705.273C43.9141 704.701 43.7188 704.258 43.3281 703.945C42.9427 703.628 42.401 703.469 41.7031 703.469H38.3906V702.227H42C42.6927 702.227 43.2865 702.341 43.7812 702.57C44.2812 702.799 44.6641 703.125 44.9297 703.547C45.2005 703.964 45.3359 704.458 45.3359 705.031V705.047C45.3359 705.438 45.2474 705.805 45.0703 706.148C44.8984 706.492 44.6667 706.781 44.375 707.016C44.0833 707.25 43.7552 707.401 43.3906 707.469V707.594C43.9062 707.656 44.3516 707.81 44.7266 708.055C45.1016 708.299 45.3906 708.617 45.5938 709.008C45.8021 709.393 45.9062 709.833 45.9062 710.328V710.344C45.9062 711 45.7526 711.565 45.4453 712.039C45.1432 712.508 44.7083 712.87 44.1406 713.125C43.5729 713.375 42.888 713.5 42.0859 713.5H38.3906ZM37.6875 713.5V702.227H39.0938V713.5H37.6875ZM50.5 713.648C49.9688 713.648 49.4896 713.547 49.0625 713.344C48.6406 713.141 48.3047 712.852 48.0547 712.477C47.8099 712.102 47.6875 711.659 47.6875 711.148V711.133C47.6875 710.633 47.8073 710.206 48.0469 709.852C48.2865 709.492 48.6354 709.211 49.0938 709.008C49.5521 708.805 50.1068 708.685 50.7578 708.648L53.8516 708.461V709.547L50.9219 709.734C50.2812 709.771 49.8125 709.904 49.5156 710.133C49.224 710.362 49.0781 710.685 49.0781 711.102V711.117C49.0781 711.544 49.2396 711.878 49.5625 712.117C49.8854 712.352 50.2917 712.469 50.7812 712.469C51.2448 712.469 51.6562 712.378 52.0156 712.195C52.375 712.008 52.6562 711.755 52.8594 711.438C53.0677 711.12 53.1719 710.76 53.1719 710.359V707.734C53.1719 707.214 53.013 706.818 52.6953 706.547C52.3828 706.271 51.9115 706.133 51.2812 706.133C50.776 706.133 50.362 706.224 50.0391 706.406C49.7161 706.583 49.5 706.836 49.3906 707.164L49.3828 707.188H48.0234L48.0312 707.141C48.1042 706.698 48.2865 706.312 48.5781 705.984C48.875 705.651 49.2578 705.393 49.7266 705.211C50.1953 705.023 50.7292 704.93 51.3281 704.93C52.0156 704.93 52.5964 705.042 53.0703 705.266C53.5495 705.49 53.9115 705.812 54.1562 706.234C54.4062 706.651 54.5312 707.151 54.5312 707.734V713.5H53.1719V712.258H53.0469C52.8698 712.555 52.6536 712.807 52.3984 713.016C52.1484 713.224 51.8646 713.383 51.5469 713.492C51.2292 713.596 50.8802 713.648 50.5 713.648ZM57.1641 713.5V705.078H58.5234V712.375H61.6875V705.078H63.0469V712.375H66.2109V705.078H67.5703V713.5H57.1641ZM74.7422 713.5V705.078H78.3125C79.1094 705.078 79.7292 705.279 80.1719 705.68C80.6146 706.076 80.8359 706.604 80.8359 707.266V707.281C80.8359 707.698 80.7057 708.081 80.4453 708.43C80.1849 708.773 79.8568 708.987 79.4609 709.07V709.195C79.8203 709.242 80.1302 709.354 80.3906 709.531C80.651 709.703 80.8516 709.922 80.9922 710.188C81.138 710.448 81.2109 710.742 81.2109 711.07V711.086C81.2109 711.57 81.0964 711.995 80.8672 712.359C80.638 712.719 80.3073 713 79.875 713.203C79.4479 713.401 78.9323 713.5 78.3281 713.5H74.7422ZM76.1016 712.375H78.2734C78.7891 712.375 79.1771 712.263 79.4375 712.039C79.6979 711.81 79.8281 711.484 79.8281 711.062V711.047C79.8281 710.599 79.6771 710.273 79.375 710.07C79.0729 709.867 78.6198 709.766 78.0156 709.766H76.1016V712.375ZM76.1016 708.641H77.8984C78.4453 708.641 78.8464 708.536 79.1016 708.328C79.3568 708.12 79.4844 707.818 79.4844 707.422V707.406C79.4844 707.047 79.375 706.758 79.1562 706.539C78.9375 706.315 78.5911 706.203 78.1172 706.203H76.1016V708.641ZM86.8984 713.648C86.1016 713.648 85.4115 713.474 84.8281 713.125C84.25 712.771 83.8021 712.268 83.4844 711.617C83.1719 710.966 83.0156 710.193 83.0156 709.297V709.281C83.0156 708.38 83.1719 707.604 83.4844 706.953C83.8021 706.302 84.25 705.802 84.8281 705.453C85.4115 705.104 86.1016 704.93 86.8984 704.93C87.7005 704.93 88.3906 705.104 88.9688 705.453C89.5469 705.802 89.9922 706.302 90.3047 706.953C90.6224 707.604 90.7812 708.38 90.7812 709.281V709.297C90.7812 710.193 90.6224 710.966 90.3047 711.617C89.9922 712.268 89.5469 712.771 88.9688 713.125C88.3906 713.474 87.7005 713.648 86.8984 713.648ZM86.8984 712.445C87.4297 712.445 87.8802 712.32 88.25 712.07C88.6198 711.82 88.901 711.461 89.0938 710.992C89.2917 710.523 89.3906 709.958 89.3906 709.297V709.281C89.3906 708.615 89.2917 708.047 89.0938 707.578C88.901 707.109 88.6198 706.753 88.25 706.508C87.8802 706.258 87.4297 706.133 86.8984 706.133C86.3672 706.133 85.9167 706.258 85.5469 706.508C85.1771 706.753 84.8932 707.109 84.6953 707.578C84.5026 708.047 84.4062 708.615 84.4062 709.281V709.297C84.4062 709.958 84.5026 710.523 84.6953 710.992C84.8932 711.461 85.1771 711.82 85.5469 712.07C85.9167 712.32 86.3672 712.445 86.8984 712.445ZM93.0391 713.5V705.078H99.8516V713.5H98.4922V706.203H94.3984V713.5H93.0391ZM102.531 716.312V705.078H103.891V706.422H104.016C104.188 706.109 104.404 705.844 104.664 705.625C104.924 705.401 105.221 705.229 105.555 705.109C105.888 704.99 106.25 704.93 106.641 704.93C107.354 704.93 107.974 705.112 108.5 705.477C109.031 705.836 109.443 706.341 109.734 706.992C110.026 707.643 110.172 708.406 110.172 709.281V709.297C110.172 710.177 110.026 710.943 109.734 711.594C109.443 712.245 109.031 712.75 108.5 713.109C107.974 713.469 107.354 713.648 106.641 713.648C106.255 713.648 105.891 713.589 105.547 713.469C105.208 713.344 104.906 713.172 104.641 712.953C104.38 712.734 104.172 712.474 104.016 712.172H103.891V716.312H102.531ZM106.328 712.445C106.844 712.445 107.284 712.32 107.648 712.07C108.013 711.815 108.292 711.453 108.484 710.984C108.682 710.51 108.781 709.948 108.781 709.297V709.281C108.781 708.625 108.682 708.062 108.484 707.594C108.292 707.125 108.013 706.766 107.648 706.516C107.284 706.26 106.844 706.133 106.328 706.133C105.818 706.133 105.378 706.26 105.008 706.516C104.638 706.771 104.354 707.133 104.156 707.602C103.958 708.07 103.859 708.63 103.859 709.281V709.297C103.859 709.943 103.958 710.503 104.156 710.977C104.354 711.445 104.638 711.807 105.008 712.062C105.378 712.318 105.818 712.445 106.328 712.445ZM115.914 713.648C115.117 713.648 114.427 713.474 113.844 713.125C113.266 712.771 112.818 712.268 112.5 711.617C112.188 710.966 112.031 710.193 112.031 709.297V709.281C112.031 708.38 112.188 707.604 112.5 706.953C112.818 706.302 113.266 705.802 113.844 705.453C114.427 705.104 115.117 704.93 115.914 704.93C116.716 704.93 117.406 705.104 117.984 705.453C118.562 705.802 119.008 706.302 119.32 706.953C119.638 707.604 119.797 708.38 119.797 709.281V709.297C119.797 710.193 119.638 710.966 119.32 711.617C119.008 712.268 118.562 712.771 117.984 713.125C117.406 713.474 116.716 713.648 115.914 713.648ZM115.914 712.445C116.445 712.445 116.896 712.32 117.266 712.07C117.635 711.82 117.917 711.461 118.109 710.992C118.307 710.523 118.406 709.958 118.406 709.297V709.281C118.406 708.615 118.307 708.047 118.109 707.578C117.917 707.109 117.635 706.753 117.266 706.508C116.896 706.258 116.445 706.133 115.914 706.133C115.383 706.133 114.932 706.258 114.562 706.508C114.193 706.753 113.909 707.109 113.711 707.578C113.518 708.047 113.422 708.615 113.422 709.281V709.297C113.422 709.958 113.518 710.523 113.711 710.992C113.909 711.461 114.193 711.82 114.562 712.07C114.932 712.32 115.383 712.445 115.914 712.445ZM125.508 713.648C124.721 713.648 124.039 713.469 123.461 713.109C122.883 712.75 122.435 712.242 122.117 711.586C121.799 710.93 121.641 710.156 121.641 709.266V709.25C121.641 708.375 121.797 707.615 122.109 706.969C122.427 706.323 122.875 705.823 123.453 705.469C124.031 705.109 124.714 704.93 125.5 704.93C126.182 704.93 126.771 705.049 127.266 705.289C127.76 705.529 128.156 705.852 128.453 706.258C128.75 706.659 128.94 707.109 129.023 707.609L129.031 707.656H127.68L127.672 707.633C127.568 707.216 127.331 706.862 126.961 706.57C126.591 706.279 126.104 706.133 125.5 706.133C124.995 706.133 124.557 706.26 124.188 706.516C123.818 706.771 123.531 707.133 123.328 707.602C123.13 708.065 123.031 708.615 123.031 709.25V709.266C123.031 709.911 123.133 710.474 123.336 710.953C123.539 711.427 123.826 711.794 124.195 712.055C124.565 712.315 125 712.445 125.5 712.445C126.068 712.445 126.531 712.323 126.891 712.078C127.25 711.833 127.508 711.477 127.664 711.008L127.68 710.961L129.023 710.953L129.008 711.039C128.893 711.544 128.69 711.995 128.398 712.391C128.107 712.781 127.721 713.089 127.242 713.312C126.763 713.536 126.185 713.648 125.508 713.648Z" fill="white"/>
<path d="M309.11 704.133L302.01 711.233C301.166 712.077 299.797 712.077 298.953 711.233C298.107 710.387 298.109 709.015 298.958 708.171L304.463 702.698L305.846 701.315C307.528 699.633 310.256 699.633 311.938 701.315C313.621 702.997 313.621 705.725 311.938 707.407L310.576 708.769L305.415 713.931C302.745 716.712 298.699 717.135 295.871 714.42C293.077 711.737 293.55 707.716 296.375 704.891L301.516 699.749" stroke="white" stroke-linecap="round" stroke-linejoin="round"/>
<path d="M335.153 705.905L340.748 707.695C341.215 707.845 341.449 707.92 341.618 708.084C341.787 708.249 341.867 708.481 342.028 708.944L342.028 708.944L343.978 714.559C344.763 716.82 345.156 717.951 345.867 717.951C346.578 717.951 346.971 716.82 347.756 714.559L352.887 699.781C353.46 698.131 353.747 697.306 353.315 696.864C352.883 696.421 352.052 696.688 350.389 697.22L335.153 702.095L335.153 702.095C332.705 702.878 331.481 703.27 331.481 704C331.481 704.73 332.705 705.122 335.153 705.905Z" fill="#D9FF9A"/>
<rect x="20" y="760" width="358" height="66" rx="14" fill="#383B35" fill-opacity="0.2"/>
<rect x="166" y="747" width="66" height="57" rx="10" fill="#D9FF9A"/>
<path d="M73.2487 787.11L63.2645 797.006C62.0773 798.183 60.1524 798.183 58.9652 797.006C57.7755 795.827 57.7783 793.914 58.9716 792.738L66.714 785.11L68.6584 783.183C71.0242 780.838 74.8599 780.838 77.2257 783.183C79.5914 785.527 79.5914 789.329 77.2257 791.674L75.3105 793.572L68.0521 800.767C64.2976 804.643 58.6084 805.233 54.6307 801.448C50.7017 797.709 51.3676 792.105 55.3403 788.167L62.57 781" stroke="white" stroke-linecap="round" stroke-linejoin="round"/>
<path d="M139.749 787.11L129.765 797.006C128.577 798.183 126.652 798.183 125.465 797.006C124.275 795.827 124.278 793.914 125.472 792.738L133.214 785.11L135.158 783.183C137.524 780.838 141.36 780.838 143.726 783.183C146.091 785.527 146.091 789.329 143.726 791.674L141.811 793.572L134.552 800.767C130.798 804.643 125.108 805.233 121.131 801.448C117.202 797.709 117.868 792.105 121.84 788.167L129.07 781" stroke="white" stroke-linecap="round" stroke-linejoin="round"/>
<path d="M272.749 787.11L262.765 797.006C261.577 798.183 259.652 798.183 258.465 797.006C257.275 795.827 257.278 793.914 258.472 792.738L266.214 785.11L268.158 783.183C270.524 780.838 274.36 780.838 276.726 783.183C279.091 785.527 279.091 789.329 276.726 791.674L274.811 793.572L267.552 800.767C263.798 804.643 258.108 805.233 254.131 801.448C250.202 797.709 250.868 792.105 254.84 788.167L262.07 781" stroke="white" stroke-linecap="round" stroke-linejoin="round"/>
<path d="M339.249 787.11L329.265 797.006C328.077 798.183 326.152 798.183 324.965 797.006C323.775 795.827 323.778 793.914 324.972 792.738L332.714 785.11L334.658 783.183C337.024 780.838 340.86 780.838 343.226 783.183C345.591 785.527 345.591 789.329 343.226 791.674L341.311 793.572L334.052 800.767C330.298 804.643 324.608 805.233 320.631 801.448C316.702 797.709 317.368 792.105 321.34 788.167L328.57 781" stroke="white" stroke-linecap="round" stroke-linejoin="round"/>
<path d="M206.249 770.11L196.265 780.006C195.077 781.183 193.152 781.183 191.965 780.006C190.775 778.827 190.778 776.914 191.972 775.738L199.714 768.11L201.658 766.183C204.024 763.838 207.86 763.838 210.226 766.183C212.591 768.527 212.591 772.329 210.226 774.674L208.311 776.572L201.052 783.767C197.298 787.643 191.608 788.233 187.631 784.448C183.702 780.709 184.368 775.105 188.34 771.167L195.57 764" stroke="black" stroke-linecap="round" stroke-linejoin="round"/>
<defs>
<linearGradient id="paint0_linear_287_298" x1="12.5" y1="-4.26033e-06" x2="355" y2="870" gradientUnits="userSpaceOnUse">
<stop stop-color="#1C2213"/>
<stop offset="1" stop-color="#111904"/>
</linearGradient>
<linearGradient id="paint1_linear_287_298" x1="16" y1="708" x2="594.5" y2="707.62" gradientUnits="userSpaceOnUse">
<stop stop-color="#657154"/>
<stop offset="1" stop-color="#C1D7A0"/>
</linearGradient>
</defs>
</svg>
